<svg width="168" height="167" viewBox="0 0 168 167" fill="none" xmlns="http://www.w3.org/2000/svg">
<path d="M63.1333 20.7778C44.0079 20.7778 28.5037 36.282 28.5037 55.4075C28.5037 74.5329 44.0079 90.0371 63.1333 90.0371C82.2588 90.0371 97.763 74.5329 97.763 55.4075C97.763 36.282 82.2588 20.7778 63.1333 20.7778ZM42.3556 55.4075C42.3556 43.9322 51.6581 34.6297 63.1333 34.6297C74.6086 34.6297 83.9111 43.9322 83.9111 55.4075C83.9111 66.8827 74.6086 76.1852 63.1333 76.1852C51.6581 76.1852 42.3556 66.8827 42.3556 55.4075Z" fill="#222020"/>
<path d="M117.906 56.9192C115.958 55.9258 113.802 55.4079 111.615 55.4079V41.556C115.989 41.556 120.301 42.5915 124.199 44.5784C124.628 44.7973 125.051 45.027 125.467 45.2672C128.828 47.2081 131.75 49.8369 134.036 52.9872C136.605 56.5275 138.3 60.6259 138.981 64.947C139.662 69.2681 139.31 73.689 137.954 77.8478C136.597 82.0067 134.276 85.7853 131.179 88.8744C128.081 91.9635 124.297 94.2753 120.134 95.6205C116.43 96.8176 112.521 97.219 108.661 96.8051C108.184 96.7539 107.707 96.6902 107.231 96.614C102.915 95.9222 98.8232 94.2188 95.2913 91.6432L95.2841 91.6379L103.449 80.4486C105.216 81.7379 107.263 82.5901 109.423 82.9362C111.582 83.2823 113.793 83.1121 115.874 82.4395C117.956 81.7669 119.848 80.6111 121.396 79.0666C122.945 77.5221 124.106 75.6328 124.784 73.5535C125.462 71.4741 125.638 69.2637 125.297 67.1032C124.957 64.9428 124.11 62.8936 122.825 61.1235C121.54 59.3534 119.855 57.9127 117.906 56.9192Z" fill="#222020"/>
<path d="M139.305 145.445C139.305 141.808 138.589 138.207 137.198 134.848C135.806 131.488 133.766 128.436 131.195 125.864C128.624 123.293 125.571 121.253 122.212 119.862C118.852 118.47 115.251 117.754 111.615 117.754V103.889C116.339 103.889 121.023 104.694 125.467 106.266C126.156 106.509 126.84 106.772 127.517 107.052C132.559 109.141 137.14 112.201 140.999 116.06C144.858 119.919 147.919 124.5 150.007 129.542C150.288 130.219 150.55 130.903 150.794 131.593C152.365 136.036 153.17 140.72 153.17 145.445H139.305Z" fill="#222020"/>
<path d="M111.615 145.445H97.763C97.763 126.319 82.2588 110.815 63.1333 110.815C44.0079 110.815 28.5037 126.319 28.5037 145.445H14.6519C14.6519 118.669 36.3578 96.963 63.1333 96.963C89.9089 96.963 111.615 118.669 111.615 145.445Z" fill="#222020"/>
</svg>
