<svg width="168" height="167" viewBox="0 0 168 167" fill="none" xmlns="http://www.w3.org/2000/svg">
<path d="M83.9553 152.371C76.3051 152.371 70.1034 146.169 70.1034 138.519H97.8071C97.8071 146.169 91.6054 152.371 83.9553 152.371ZM139.363 131.593H28.5479V117.741L42.3997 110.815V72.7224C42.3997 48.7449 52.2414 33.1962 70.1034 28.9506V13.8521H97.8071V28.9506C115.669 33.1892 125.511 48.731 125.511 72.7224V110.815L139.363 117.741V131.593ZM83.9553 39.8243C75.5033 39.2785 67.3523 43.0606 62.3117 49.8669C58.0007 56.6858 55.8854 64.6633 56.2516 72.7224V117.741H111.659V72.7224C112.025 64.6633 109.909 56.686 105.599 49.8669C100.558 43.0606 92.4072 39.2785 83.9553 39.8243Z" fill="#222020"/>
</svg>
