<svg width="140" height="140" viewBox="0 0 140 140" fill="none" xmlns="http://www.w3.org/2000/svg">
<path d="M70.0002 128.333C63.5604 128.302 58.3388 123.106 58.2752 116.666H81.6085C81.6208 118.226 81.3234 119.773 80.7335 121.216C79.2032 124.728 76.0774 127.29 72.3335 128.1H72.3043H72.2168H72.1118H72.0593C71.3816 128.241 70.6923 128.319 70.0002 128.333ZM116.667 110.833H23.3335V99.1665L35.0002 93.3332V61.2498C34.6928 53.0197 36.5515 44.8531 40.3902 37.5665C44.2112 30.8087 50.7426 26.01 58.3335 24.3832V11.6665H81.6668V24.3832C96.711 27.9648 105 41.0548 105 61.2498V93.3332L116.667 99.1665V110.833Z" fill="black"/>
</svg>
