<svg width="187" height="187" viewBox="0 0 187 187" fill="none" xmlns="http://www.w3.org/2000/svg">
<path d="M136.954 148.042L99.8113 110.907C83.0111 121.989 60.5492 118.561 47.8201 102.971C35.0909 87.3812 36.2242 64.6874 50.4433 50.4433C64.685 36.2187 87.3813 35.0805 102.975 47.8088C118.568 60.537 121.998 83.0015 110.914 99.8035L148.042 136.954L136.954 148.042ZM78.1816 54.6507C66.9558 54.6436 57.2881 62.5672 55.0909 73.576C52.8937 84.5847 58.7789 95.6125 69.1474 99.9153C79.5159 104.218 91.48 100.598 97.723 91.2678C103.966 81.938 102.749 69.4975 94.8168 61.5542C90.4165 57.1234 84.4262 54.6375 78.1816 54.6507Z" fill="#222020"/>
</svg>
