<svg width="167" height="167" viewBox="0 0 167 167" fill="none" xmlns="http://www.w3.org/2000/svg">
<path d="M83.5998 152.371C73.1282 152.4 62.7889 150.031 53.3751 145.445C49.9297 143.769 46.6287 141.811 43.5056 139.592L42.5568 138.9C33.9674 132.56 26.9448 124.336 22.0283 114.86C16.9429 105.052 14.3053 94.1592 14.3402 83.1113C14.3402 44.8605 45.349 13.8521 83.5998 13.8521C121.851 13.8521 152.859 44.8605 152.859 83.1113C152.894 94.154 150.259 105.041 145.178 114.846C140.269 124.317 133.256 132.538 124.677 138.879C121.441 141.248 118.007 143.333 114.413 145.112L113.859 145.389C104.439 150 94.0874 152.388 83.5998 152.371ZM83.5998 117.741C73.2211 117.721 63.7062 123.517 58.9643 132.749C74.488 140.438 92.7116 140.438 108.235 132.749V132.715C103.488 123.493 93.9722 117.709 83.5998 117.741ZM83.5998 103.889C98.6021 103.909 112.435 111.993 119.815 125.055L119.919 124.965L120.016 124.882L119.899 124.985L119.829 125.041C137.345 109.908 143.608 85.4823 135.535 63.7887C127.462 42.0951 106.754 27.7061 83.6067 27.7061C60.4596 27.7061 39.7517 42.0951 31.6786 63.7887C23.6054 85.4823 29.8685 109.908 47.3841 125.041C54.769 111.986 68.6007 103.907 83.5998 103.889ZM83.5998 96.9632C68.2995 96.9632 55.8961 84.5598 55.8961 69.2595C55.8961 53.9591 68.2995 41.5558 83.5998 41.5558C98.9001 41.5558 111.304 53.9591 111.304 69.2595C111.304 76.6069 108.385 83.6535 103.189 88.8489C97.9938 94.0444 90.9473 96.9632 83.5998 96.9632ZM83.5998 55.4076C75.9496 55.4076 69.7479 61.6093 69.7479 69.2595C69.7479 76.9096 75.9496 83.1113 83.5998 83.1113C91.25 83.1113 97.4517 76.9096 97.4517 69.2595C97.4517 61.6093 91.25 55.4076 83.5998 55.4076Z" fill="#222020"/>
</svg>
